<svg width="299" height="52" viewBox="0 0 299 52" fill="none" xmlns="http://www.w3.org/2000/svg">
<path fill-rule="evenodd" clip-rule="evenodd" d="M62.4 0C64.946 0 67.388 1.01137 69.1884 2.81172C70.9888 4.61208 72 7.05392 72 9.6V19C69.3492 19 67.2 21.149 67.2 23.8C67.2 26.4096 69.2824 28.5328 71.876 28.5984L72 28.6V38.4C72 40.946 70.9888 43.388 69.1884 45.1884C67.388 46.9888 64.946 48 62.4 48H9.6C7.05392 48 4.61208 46.9888 2.81172 45.1884C1.01137 43.388 0 40.946 0 38.4V29C2.65097 29 4.8 26.851 4.8 24.2C4.8 21.549 2.65097 19.4 0 19.4V9.6C0 7.05392 1.01137 4.61208 2.81172 2.81172C4.61208 1.01137 7.05392 0 9.6 0H62.4ZM48.4372 15.0922C47.7148 14.409 46.5752 14.4407 45.892 15.1629L33.2055 28.5738L28.5133 23.5688C27.8334 22.8435 26.694 22.8068 25.9688 23.4867C25.2435 24.1666 25.2068 25.306 25.8867 26.0312L31.8867 32.4312C32.226 32.7932 32.7 32.9989 33.1961 33C33.6922 33.0011 34.1669 32.7975 34.5078 32.4371L48.508 17.6371C49.1908 16.9149 49.1592 15.7754 48.4372 15.0922Z" fill="#6366F1"/>
<path d="M93.171 41.7778V11.0089H82V6H109.953V11.0089H98.7823V41.7778H93.171Z" fill="black"/>
<path d="M114.615 41.7778V16.58H119.95V41.7778H114.615ZM117.309 13.1556C116.273 13.1556 115.392 12.8318 114.666 12.1844C113.976 11.5029 113.631 10.6341 113.631 9.57778C113.631 8.52149 113.976 7.66962 114.666 7.02222C115.392 6.34073 116.273 6 117.309 6C118.379 6 119.26 6.34073 119.95 7.02222C120.641 7.66962 120.986 8.52149 120.986 9.57778C120.986 10.6341 120.641 11.5029 119.95 12.1844C119.26 12.8318 118.379 13.1556 117.309 13.1556Z" fill="black"/>
<path d="M139.977 41.7778C137.525 41.7778 135.298 41.2733 133.295 40.2642C131.326 39.2552 129.755 37.792 128.581 35.8748C127.441 33.9576 126.871 31.6537 126.871 28.9629V28.307C126.871 25.6162 127.441 23.329 128.581 21.4454C129.755 19.5283 131.326 18.0651 133.295 17.0561C135.298 16.0134 137.525 15.4921 139.977 15.4921C142.429 15.4921 144.518 15.9293 146.245 16.8038C147.972 17.6783 149.353 18.8388 150.389 20.285C151.46 21.7313 152.151 23.329 152.462 25.078L147.281 26.1375C147.108 25.0276 146.746 24.0185 146.193 23.1104C145.641 22.2022 144.864 21.4791 143.862 20.9409C142.861 20.4028 141.6 20.1337 140.08 20.1337C138.596 20.1337 137.249 20.47 136.04 21.1427C134.866 21.7818 133.933 22.7236 133.242 23.9681C132.552 25.1789 132.206 26.6589 132.206 28.4079V28.862C132.206 30.611 132.552 32.1077 133.242 33.3522C133.933 34.5967 134.866 35.5385 136.04 36.1776C137.249 36.8166 138.596 37.1362 140.08 37.1362C142.325 37.1362 144.035 36.5812 145.209 35.4712C146.383 34.3276 147.126 32.8813 147.437 31.1323L152.617 32.2927C152.203 34.0081 151.46 35.589 150.389 37.0353C149.353 38.4815 147.972 39.6418 146.245 40.5165C144.518 41.3572 142.429 41.7778 139.977 41.7778Z" fill="black"/>
<path d="M158.502 41.7778V6H163.795V26.3933H164.618L174.588 16.58H181.63L168.832 28.7956L182.041 41.7778H175.051L164.618 31.3H163.795V41.7778H158.502Z" fill="black"/>
<path d="M197.166 41.7778C194.582 41.7778 192.326 41.2563 190.397 40.2138C188.467 39.1374 186.951 37.6407 185.849 35.7235C184.781 33.7727 184.247 31.5191 184.247 28.9629V28.3574C184.247 25.7675 184.781 23.514 185.849 21.5968C186.917 19.646 188.398 18.1492 190.293 17.1065C192.222 16.0302 194.444 15.4921 196.959 15.4921C199.405 15.4921 201.541 16.0302 203.366 17.1065C205.227 18.1492 206.674 19.6123 207.707 21.4959C208.741 23.3795 209.258 25.5825 209.258 28.1052V30.0728H189.673C189.742 32.2591 190.483 34.0081 191.895 35.3199C193.342 36.598 195.133 37.2371 197.269 37.2371C199.267 37.2371 200.766 36.7998 201.765 35.9253C202.798 35.0508 203.59 34.0417 204.142 32.8982L208.534 35.1181C208.052 36.0598 207.345 37.0521 206.415 38.0947C205.52 39.1374 204.331 40.0119 202.85 40.7183C201.368 41.4246 199.474 41.7778 197.166 41.7778ZM189.724 26.0871H203.831C203.694 24.2035 203.005 22.7404 201.765 21.6977C200.525 20.6214 198.905 20.0832 196.907 20.0832C194.909 20.0832 193.273 20.6214 191.998 21.6977C190.758 22.7404 190 24.2035 189.724 26.0871Z" fill="black"/>
<path d="M224.24 41.7778C222.697 41.7778 221.462 41.317 220.536 40.3954C219.644 39.4738 219.198 38.245 219.198 36.709V20.9905H212.2V16.5361H219.198V8.19048H224.497V16.5361H232.061V20.9905H224.497V35.7874C224.497 36.8114 224.977 37.3234 225.938 37.3234H231.237V41.7778H224.24Z" fill="black"/>
<path d="M238.93 41.7778V16.58H244.266V41.7778H238.93ZM241.624 13.1556C240.587 13.1556 239.707 12.8318 238.982 12.1844C238.291 11.5029 237.946 10.6341 237.946 9.57778C237.946 8.52149 238.291 7.66962 238.982 7.02222C239.707 6.34073 240.587 6 241.624 6C242.694 6 243.575 6.34073 244.266 7.02222C244.956 7.66962 245.302 8.52149 245.302 9.57778C245.302 10.6341 244.956 11.5029 244.266 12.1844C243.575 12.8318 242.694 13.1556 241.624 13.1556Z" fill="black"/>
<path d="M256.871 41.7778V21.0267H249.715V16.58H256.871V11.06C256.871 9.52667 257.338 8.3 258.272 7.38C259.205 6.46 260.45 6 262.005 6H268.591V10.4467H263.716C262.714 10.4467 262.213 10.9578 262.213 11.98V16.58H269.576V21.0267H262.213V41.7778H256.871Z" fill="black"/>
<path d="M277.948 52V47.3535H292.242C293.213 47.3535 293.698 46.8373 293.698 45.8047V37.9573H292.866C292.555 38.6457 292.069 39.3169 291.411 39.9708C290.787 40.5903 289.938 41.1066 288.864 41.5196C287.789 41.9327 286.438 42.1392 284.809 42.1392C282.869 42.1392 281.136 41.7088 279.611 40.8485C278.087 39.9882 276.891 38.7662 276.025 37.1829C275.158 35.5997 274.725 33.7239 274.725 31.5556V16.2222H280.079V31.1425C280.079 33.3453 280.634 34.9802 281.742 36.0471C282.851 37.0797 284.394 37.596 286.369 37.596C288.552 37.596 290.302 36.8732 291.618 35.4276C292.97 33.982 293.646 31.8825 293.646 29.1291V16.2222H299V46.8889C299 48.4377 298.532 49.6768 297.597 50.6061C296.695 51.5354 295.448 52 293.854 52H277.948Z" fill="black"/>
</svg>
